<?xml version="1.0" standalone="no"?>
<!DOCTYPE svg PUBLIC "-//W3C//DTD SVG 20010904//EN"
 "http://www.w3.org/TR/2001/REC-SVG-20010904/DTD/svg10.dtd">
<svg version="1.0" xmlns="http://www.w3.org/2000/svg"
 width="96.000000pt" height="96.000000pt" viewBox="0 0 96.000000 96.000000"
 preserveAspectRatio="xMidYMid meet">
<metadata>
Created by potrace 1.11, written by Peter Selinger 2001-2013
</metadata>
<g transform="translate(0.000000,96.000000) scale(0.100000,-0.100000)"
fill="#000000" stroke="none">
<path d="M387 870 c-185 -47 -310 -213 -303 -406 4 -147 86 -273 219 -339 206
-102 440 -18 540 192 29 62 32 77 32 163 0 86 -3 101 -31 160 -69 144 -191
229 -340 236 -44 2 -96 -1 -117 -6z m229 -102 c100 -47 168 -143 180 -258 15
-142 -67 -274 -206 -331 -21 -8 -68 -14 -115 -14 -65 1 -90 5 -130 25 -270
134 -231 525 60 601 51 14 158 2 211 -23z"/>
<path d="M350 612 c0 -26 3 -28 38 -26 20 0 42 -1 48 -3 8 -3 12 -42 12 -121
0 -64 0 -123 1 -129 1 -7 14 -13 31 -13 34 0 31 -16 31 168 0 50 3 93 7 93 6
1 26 3 80 8 6 1 12 12 12 26 l0 25 -130 0 -130 0 0 -28z"/>
</g>
</svg>
